<svg width="252" height="341" viewBox="0 0 252 341" fill="none" xmlns="http://www.w3.org/2000/svg">
<path d="M72.2753 275.761H179.743M181.265 264.156C183.576 246.594 194.763 231.819 208.114 220.16C227.306 203.445 240.935 181.272 247.18 156.605C253.425 131.939 251.987 105.954 243.059 82.1261C234.132 58.2981 218.139 37.7625 197.221 23.2653C176.302 8.76798 151.454 1 126 1C100.546 1 75.698 8.76798 54.7794 23.2653C33.8608 37.7625 17.8685 58.2981 8.94071 82.1261C0.0129638 105.954 -1.42462 131.939 4.82017 156.605C11.065 181.272 24.6945 203.445 43.8862 220.16C57.2555 231.819 68.4608 246.594 70.7532 264.156L72.2937 275.761L76.5667 308.282C77.728 317.101 82.0573 325.197 88.748 331.063C95.4387 336.928 104.034 340.161 112.933 340.161H139.085C147.984 340.161 156.58 336.928 163.27 331.063C169.961 325.197 174.29 317.101 175.452 308.282L179.725 275.761L181.265 264.156Z" stroke="white" stroke-width="12" stroke-linecap="round" stroke-linejoin="round"/>
</svg>
