<svg width="252" height="141" viewBox="0 0 252 141" fill="none" xmlns="http://www.w3.org/2000/svg">
<path d="M167.667 70.4444V131.556C167.667 132.65 167.451 133.734 167.032 134.745C166.614 135.756 166 136.674 165.226 137.448C164.452 138.222 163.533 138.836 162.522 139.255C161.511 139.673 160.428 139.889 159.333 139.889H9.33333C8.23898 139.889 7.15535 139.673 6.1443 139.255C5.13326 138.836 4.2146 138.222 3.44078 137.448C2.66696 136.674 2.05313 135.756 1.63434 134.745C1.21555 133.734 1 132.65 1 131.556V9.33333C1 7.12319 1.87797 5.00358 3.44078 3.44078C5.00358 1.87797 7.12319 1 9.33333 1H159.333C161.543 1 163.663 1.87797 165.226 3.44078C166.789 5.00358 167.667 7.12319 167.667 9.33333V70.4444ZM167.667 70.4444L237.333 12.3889C238.55 11.3753 240.031 10.7295 241.601 10.527C243.172 10.3246 244.768 10.5739 246.202 11.2458C247.636 11.9177 248.849 12.9843 249.699 14.3207C250.549 15.6571 251 17.208 251 18.7917V122.097C250.997 123.68 250.544 125.229 249.693 126.563C248.843 127.897 247.629 128.962 246.196 129.632C244.762 130.302 243.167 130.55 241.598 130.348C240.029 130.145 238.549 129.499 237.333 128.486L167.667 70.4444Z" stroke="white" stroke-width="5" stroke-linecap="round" stroke-linejoin="round"/>
</svg>
