<svg width="252" height="223" viewBox="0 0 252 223" fill="none" xmlns="http://www.w3.org/2000/svg">
<path d="M106.769 174.077L87.5385 222.154M145.231 174.077L164.462 222.154M68.3077 222.154H183.692M241.385 1H10.6154C8.06523 1 5.61952 2.01305 3.81628 3.81628C2.01305 5.61952 1 8.06523 1 10.6154V164.462C1 167.012 2.01305 169.457 3.81628 171.261C5.61952 173.064 8.06523 174.077 10.6154 174.077H241.385C243.935 174.077 246.381 173.064 248.184 171.261C249.987 169.457 251 167.012 251 164.462V10.6154C251 8.06523 249.987 5.61952 248.184 3.81628C246.381 2.01305 243.935 1 241.385 1Z" stroke="white" stroke-width="12" stroke-linecap="round" stroke-linejoin="round"/>
</svg>
